<?xml version="1.0" encoding="UTF-8" standalone="no"?>
<!-- Created with Inkscape (http://www.inkscape.org/) -->

<svg
   xmlns:dc="http://purl.org/dc/elements/1.1/"
   xmlns:cc="http://creativecommons.org/ns#"
   xmlns:rdf="http://www.w3.org/1999/02/22-rdf-syntax-ns#"
   xmlns:svg="http://www.w3.org/2000/svg"
   xmlns="http://www.w3.org/2000/svg"
   xmlns:sodipodi="http://sodipodi.sourceforge.net/DTD/sodipodi-0.dtd"
   xmlns:inkscape="http://www.inkscape.org/namespaces/inkscape"
   id="svg4190"
   version="1.1"
   inkscape:version="0.91 r13725"
   width="270.63733"
   height="292.67514"
   viewBox="0 0 270.63733 292.67514"
   sodipodi:docname="icon_swipe.svg">
  <metadata
     id="metadata4196">
    <rdf:RDF>
      <cc:Work
         rdf:about="">
        <dc:format>image/svg+xml</dc:format>
        <dc:type
           rdf:resource="http://purl.org/dc/dcmitype/StillImage" />
        <dc:title></dc:title>
      </cc:Work>
    </rdf:RDF>
  </metadata>
  <defs
     id="defs4194" />
  <sodipodi:namedview
     pagecolor="#ffffff"
     bordercolor="#666666"
     borderopacity="1"
     objecttolerance="10"
     gridtolerance="10"
     guidetolerance="10"
     inkscape:pageopacity="0"
     inkscape:pageshadow="2"
     inkscape:window-width="1360"
     inkscape:window-height="681"
     id="namedview4192"
     showgrid="false"
     fit-margin-top="0"
     fit-margin-left="0"
     fit-margin-right="0"
     fit-margin-bottom="0"
     inkscape:zoom="1.0625"
     inkscape:cx="40.345659"
     inkscape:cy="48.126068"
     inkscape:window-x="0"
     inkscape:window-y="24"
     inkscape:window-maximized="1"
     inkscape:current-layer="svg4190" />
  <path
     style="fill:#ffffff;fill-opacity:1"
     d="m 76.189732,291.49326 c -13.72977,-2.58753 -27.73589,-8.63134 -35.34918,-15.2536 -1.78897,-1.5561 -2.00289,-3.00582 -2.02741,-13.73966 -0.0394,-17.23292 -2.17388,-24.57166 -9.97404,-34.29211 -7.26085,-9.04837 -10.6816,-29.24608 -10.87444,-64.20789 -0.11736,-21.27584 -0.007,-22.71763 2.03431,-26.5 4.83657,-8.96318 13.35745,-13.70321 25.01615,-13.91607 6.39395,-0.11674 7.5722,-0.44603 10.035,-2.80449 6.37342,-6.10341 17.66925,-8.88059 27.67337,-6.80374 5.5296,1.14794 5.87489,1.10121 7.34227,-0.99377 3.40815,-4.86582 15.853438,-7.61342 22.697968,-5.01114 2.21722,0.84299 2.61522,0.67843 3.0231,-1.25 0.25835,-1.22143 2.52224,-19.92898 5.03087,-41.57232 2.50864,-21.64334 4.99239,-40.1573 5.51946,-41.14214 2.90482,-5.42769 10.70805,-8.88902 16.94917,-7.51824 3.74037,0.82152 8.89899,4.97342 10.09815,8.12747 0.90823,2.38881 2.29539,31.71695 3.92028,82.88444 1.05299,33.15855 1.87928,38.18964 7.13532,43.44569 5.0072,5.00719 6.73658,4.31544 18.19163,-7.27671 7.73799,-7.83059 11.80668,-11.11357 16.81066,-13.56432 13.67351,-6.69675 27.09094,-6.50424 34.2948,0.49206 5.59873,5.43742 5.11432,8.58708 -2.95941,19.24219 -4.61791,6.09437 -9.6794,15.03263 -17.07939,30.16109 -17.67336,36.13123 -18.30628,37.35373 -21.8202,42.1464 -1.87368,2.55552 -10.23953,10.17379 -18.59078,16.9295 -19.24248,15.5661 -25.62096,23.488 -28.93851,35.94085 -0.65691,2.46579 -1.84375,5.21161 -2.63741,6.10183 -1.94397,2.18047 -13.47779,7.40513 -20.87092,9.45424 -8.36997,2.31986 -34.380258,2.85603 -44.650818,0.92044 z M 17.500672,47.53403 C 7.9637321,39.10305 0.08873209,31.96421 6.7209332e-4,31.66995 -0.17706791,31.07605 34.957182,0 35.806362,0 c 0.29381,0 0.53419,4.05 0.53419,9 l 0,9 32.5,0 32.499998,0 0,13.5 0,13.5 -32.499998,0 -32.5,0 0,9 c 0,4.95 -0.3375,8.96919 -0.75,8.93154 -0.4125,-0.0377 -8.55295,-6.96653 -18.08988,-15.39751 z M 234.34055,54 l 0,-9 -32.5,0 -32.5,0 0,-13.5 0,-13.5 32.5,0 32.5,0 0,-9 c 0,-4.95 0.24247,-9 0.53883,-9 0.60158,0 35.43493,30.59981 35.75689,31.41111 C 270.86003,31.97495 235.73454,63 234.87242,63 c -0.29253,0 -0.53187,-4.05 -0.53187,-9 z"
     id="path4200"
     inkscape:connector-curvature="0" />
</svg>
